{"title":"Final Destination 5 TS XViD DTRG","uid":6609567,"size":1210017491,"categoryP":"video","categoryS":"movies","magnet":"?xt=urn:btih:1648c5e07603506859ba397fac9efdf28a04d4b0&amp;dn=Final+Destination+5+TS+XViD+DTRG&amp;tr=udp%3A%2F%2Ftracker.openbittorrent.com%3A80&amp;tr=udp%3A%2F%2Fopen.demonii.com%3A1337&amp;tr=udp%3A%2F%2Ftracker.coppersurfer.tk%3A6969&amp;tr=udp%3A%2F%2Fexodus.desync.com%3A6969","seeders":0,"leechers":1,"uploader":"SAFCukO09","files":4,"time":1313538634,"description":"\n\nFormat                           : AVI\nFormat/Info                      : Audio Video Interleave\nFile size                        : 1.11 GiB\nDuration                         : 1h 26mn\nOverall bit rate                 : 1 843 Kbps\nWriting library                  : VirtualDub build 32842/release\n\nVideo\nID                               : 0\nFormat                           : MPEG-4 Visual\nFormat profile                   : Advanced Simple@L5\nFormat settings, BVOP            : 2\nFormat settings, QPel            : No\nFormat settings, GMC             : No warppoints\nFormat settings, Matrix          : Default (H.263)\nMuxing mode                      : Packed bitstream\nCodec ID                         : XVID\nCodec ID/Hint                    : XviD\nDuration                         : 1h 26mn\nBit rate                         : 1 703 Kbps\nWidth                            : 720 pixels\nHeight                           : 256 pixels\nDisplay aspect ratio             : 2.813\nFrame rate                       : 29.970 fps\nColor space                      : YUV\nChroma subsampling               : 4:2:0\nBit depth                        : 8 bits\nScan type                        : Progressive\nCompression mode                 : Lossy\nBits/(Pixel*Frame)               : 0.308\nStream size                      : 1.03 GiB (92%)\nWriting library                  : XviD 64\n\nAudio\nID                               : 1\nFormat                           : MPEG Audio\nFormat version                   : Version 1\nFormat profile                   : Layer 3\nCodec ID                         : 55\nCodec ID/Hint                    : MP3\nDuration                         : 1h 26mn\nBit rate mode                    : Constant\nBit rate                         : 128 Kbps\nChannel(s)                       : 2 channels\nSampling rate                    : 44.1 KHz\nCompression mode                 : Lossy\nStream size                      : 79.2 MiB (7%)\nAlignment                        : Split accross interleaves\nInterleave, duration             : 33 ms (1.00 video frame)\nInterleave, preload duration     : 500 ms\n\n\n\n\n\n\n\n &lt;a href=&quot;\nhttp://www.imdb.com/title/tt1622979/&quot; rel=&quot;nofollow&quot; target=&quot;_NEW&quot;&gt;\nhttp://www.imdb.com/title/tt1622979/&lt;/a&gt;\n\n\n\n\n\n[IMG]http://leetleech.org/images/89524873606771859129.png[/IMG]\n\n\nUsers: (683 votes) 42 reviews | Critics: 3 reviews Metascore: 51/100 (based on 21 reviews from Metacritic.com)\n\n\nSurvivors of a suspension-bridge collapse learn there's no way you can cheat Death.\n\nDirector: Steven Quale\nWriters: Eric Heisserer, Jeffrey Reddick (characters)\nStars: Nicholas D'Agosto, Emma Bell and Arlen Escarpeta\n\n\n\n\n\n\n\n\n &lt;a href=&quot;\nhttp://www.leetleech.org/images/41271024971970364343.png&quot; rel=&quot;nofollow&quot; target=&quot;_NEW&quot;&gt;\nhttp://www.leetleech.org/images/41271024971970364343.png&lt;/a&gt;\n &lt;a href=&quot;\nhttp://www.leetleech.org/images/71580265272620052991.png&quot; rel=&quot;nofollow&quot; target=&quot;_NEW&quot;&gt;\nhttp://www.leetleech.org/images/71580265272620052991.png&lt;/a&gt;\n &lt;a href=&quot;\nhttp://www.leetleech.org/images/08921322269340077308.png&quot; rel=&quot;nofollow&quot; target=&quot;_NEW&quot;&gt;\nhttp://www.leetleech.org/images/08921322269340077308.png&lt;/a&gt;\n &lt;a href=&quot;\nhttp://www.leetleech.org/images/68474158901769209908.png&quot; rel=&quot;nofollow&quot; target=&quot;_NEW&quot;&gt;\nhttp://www.leetleech.org/images/68474158901769209908.png&lt;/a&gt;\n\n\n\n\n\n\nSource Used\n\n \nVIDEO: .....IMAGiNE............... Thanks \nAUDIO: ....IMAGiNE             ..... Thanks \n\n\n\n\nNot a great deal of filters vid was already good just my little take on it \n\n\nThe vid has a crop to the top now imo i would take this anyday of the week over the other source out \n\n\nSample included\n\nEnjoy\n\n\n\n\n\nGreetz to IMAGiNE,Flawl3ss,DiLLoN,BDK,NOiR,TOXiC,THC,Ez,Rx,Boobyblue,TaRiQ786\n\n\n\n\n\n\n\n","torrent":{"xt":"urn:btih:1648c5e07603506859ba397fac9efdf28a04d4b0","amp;dn":"Final+Destination+5+TS+XViD+DTRG","amp;tr":["udp%3A%2F%2Ftracker.openbittorrent.com%3A80","udp%3A%2F%2Fopen.demonii.com%3A1337","udp%3A%2F%2Ftracker.coppersurfer.tk%3A6969","udp%3A%2F%2Fexodus.desync.com%3A6969"],"infoHash":"1648c5e07603506859ba397fac9efdf28a04d4b0","infoHashBuffer":{"type":"Buffer","data":[22,72,197,224,118,3,80,104,89,186,57,127,172,158,253,242,138,4,212,176]},"announce":[],"urlList":[]}}